<svg width="4328" height="1012" viewBox="0 0 4328 1012" fill="none" xmlns="http://www.w3.org/2000/svg">
<rect opacity="0.75" x="811" y="53" width="136" height="959" rx="26" fill="#CDABC0"/>
<rect opacity="0.75" x="2975" y="53" width="136" height="959" rx="26" fill="#CDABC0"/>
<rect opacity="0.75" x="1894" y="53" width="135" height="959" rx="26" fill="#CDABC0"/>
<rect opacity="0.75" x="4058" y="53" width="135" height="959" rx="26" fill="#CDABC0"/>
<rect opacity="0.75" x="270" y="53" width="136" height="959" rx="26" fill="#EED6E5"/>
<rect opacity="0.75" x="2434" y="53" width="136" height="959" rx="26" fill="#EED6E5"/>
<rect opacity="0.75" x="1353" y="53" width="135" height="959" rx="26" fill="#EED6E5"/>
<rect opacity="0.75" x="3517" y="53" width="135" height="959" rx="26" fill="#EED6E5"/>
<rect opacity="0.75" x="541" width="135" height="1012" rx="26" fill="#B16A96"/>
<rect opacity="0.75" x="2705" width="135" height="1012" rx="26" fill="#B16A96"/>
<rect opacity="0.75" x="1623" width="135" height="1012" rx="26" fill="#B16A96"/>
<rect opacity="0.75" x="3787" width="135" height="1012" rx="26" fill="#B16A96"/>
<rect opacity="0.75" width="135" height="1012" rx="26" fill="#FFE0F3"/>
<rect opacity="0.75" x="2164" width="135" height="1012" rx="26" fill="#FFE0F3"/>
<rect opacity="0.75" x="1082" width="135" height="1012" rx="26" fill="#FFE0F3"/>
<rect opacity="0.75" x="3246" width="135" height="1012" rx="26" fill="#FFE0F3"/>
<rect opacity="0.75" x="947" y="279" width="135" height="733" rx="26" fill="#DD98C2"/>
<rect opacity="0.75" x="3111" y="279" width="135" height="733" rx="26" fill="#DD98C2"/>
<rect opacity="0.75" x="2029" y="279" width="135" height="733" rx="26" fill="#DD98C2"/>
<rect opacity="0.75" x="4193" y="279" width="135" height="733" rx="26" fill="#DD98C2"/>
<rect opacity="0.75" x="406" y="279" width="135" height="733" rx="26" fill="#875975"/>
<rect opacity="0.75" x="2570" y="279" width="135" height="733" rx="26" fill="#875975"/>
<rect opacity="0.75" x="1488" y="279" width="135" height="733" rx="26" fill="#875975"/>
<rect opacity="0.75" x="3652" y="279" width="135" height="733" rx="26" fill="#875975"/>
<rect opacity="0.75" x="676" y="125" width="135" height="887" rx="26" fill="#DD98C2"/>
<rect opacity="0.75" x="2840" y="125" width="135" height="887" rx="26" fill="#DD98C2"/>
<rect opacity="0.75" x="1758" y="125" width="136" height="887" rx="26" fill="#DD98C2"/>
<rect opacity="0.75" x="3922" y="125" width="136" height="887" rx="26" fill="#DD98C2"/>
<rect opacity="0.75" x="135" y="125" width="135" height="887" rx="26" fill="#DD98C2"/>
<rect opacity="0.75" x="2299" y="125" width="135" height="887" rx="26" fill="#DD98C2"/>
<rect opacity="0.75" x="1217" y="125" width="136" height="887" rx="26" fill="#DD98C2"/>
<rect opacity="0.75" x="3381" y="125" width="136" height="887" rx="26" fill="#DD98C2"/>
</svg>
